Coordinates
nRows=8
nColumns=38

# SIMM Motion File Header:
name Coordinates
datacolumns 38
datarows 8
otherdata 1
range 2.20949999999999980000 2.21649999999999990000

Units are S.I. units (second, meters, Newtons, ...)
Angles are in degrees.

endheader
time	pelvis_tilt	pelvis_list	pelvis_rotation	pelvis_tx	pelvis_ty	pelvis_tz	hip_flexion_r	hip_adduction_r	hip_rotation_r	knee_angle_r	ankle_angle_r	subtalar_angle_r	mtp_angle_r	hip_flexion_l	hip_adduction_l	hip_rotation_l	knee_angle_l	ankle_angle_l	subtalar_angle_l	mtp_angle_l	lumbar_extension	lumbar_bending	lumbar_rotation	arm_flex_r	arm_add_r	arm_rot_r	elbow_flex_r	pro_sup_r	wrist_flex_r	wrist_dev_r	arm_flex_l	arm_add_l	arm_rot_l	elbow_flex_l	pro_sup_l	wrist_flex_l	wrist_dev_l
      2.20949999999999980000	      6.54298676069598170000	      3.56976750859477220000	     -4.18908205519946010000	      1.20356549422370910000	      0.97723027354236380000	     -0.31028835184147974000	     17.93315937280549800000	     -4.58305140236738760000	      3.72671934164090860000	    -81.16538778187887700000	     10.87248361664534700000	     -0.00000000000004304225	      0.00000000000012829423	     -3.39440706184744420000	     13.24116415903823100000	      6.76621941646293300000	    -30.95080119271175100000	     24.10922718318253600000	     -0.00000000000000781982	      0.00000000000000974391	    -20.14022085075252400000	     -5.26924443850255120000	     -6.21973976327084530000	    -30.15746808910033000000	     -9.84491359479659420000	     -0.93543872002901962000	    113.25556897273253000000	    103.32129224774478000000	      0.00000000000000230693	     -0.00000000000000807871	    -18.61611411980815200000	     -8.91197145723312720000	    -10.06385733978743200000	    121.68317613377006000000	     96.73750624467227500000	     -0.00000000000000344848	      0.00000000000001615143
      2.21050000000000010000	      6.50889421936097180000	      3.50164097358253330000	     -4.17884789383708450000	      1.20367000557129680000	      0.97766020727955127000	     -0.31022256979105317000	     18.05351461632168500000	     -4.51073527210344240000	      3.66901377078192810000	    -80.96618339924910400000	     10.95058561212558600000	     -0.00000000000004322103	      0.00000000000012856805	     -3.63410139192583030000	     13.17562279170733900000	      6.90755130159562110000	    -30.69303972124527000000	     23.99725118135717800000	     -0.00000000000000791145	      0.00000000000000977156	    -20.08280714210373900000	     -5.18828505487380200000	     -6.32043744053150820000	    -30.30321984678427300000	     -9.86346290957309610000	     -0.99644684647561854000	    113.48109476860989000000	    103.30672203188675000000	      0.00000000000000232546	     -0.00000000000000811076	    -18.54801572772863200000	     -8.88436462305843120000	     -9.96922673178579900000	    121.84727121057540000000	     96.64030453971886900000	     -0.00000000000000344342	      0.00000000000001591851
      2.21150000000000000000	      6.47551113070259990000	      3.43231327629932940000	     -4.16831559671293310000	      1.20377641874423860000	      0.97810015256190586000	     -0.31015607206705903000	     18.17070290860953800000	     -4.43730325166237720000	      3.60996544976731350000	    -80.76158683353763500000	     11.02709264928516000000	     -0.00000000000004340351	      0.00000000000012884152	     -3.87535037927131660000	     13.10809111129973700000	      7.04939683442514390000	    -30.43282572701798100000	     23.88008890150297600000	     -0.00000000000000797146	      0.00000000000000973982	    -20.02634195295765500000	     -5.10588244337257710000	     -6.41859836040202760000	    -30.45068607038278000000	     -9.88158285817469210000	     -1.05820707589151450000	    113.70772641926528000000	    103.28863221052389000000	      0.00000000000000234387	     -0.00000000000000814449	    -18.47884597809849100000	     -8.85932646214696720000	     -9.86890695741491800000	    122.01103111837689000000	     96.53988356286382100000	     -0.00000000000000343896	      0.00000000000001568622
      2.21249999999999990000	      6.44285514275166360000	      3.36178762589054570000	     -4.15748009782502770000	      1.20388463872974420000	      0.97854999822997979000	     -0.31008886631989069000	     18.28470317658828700000	     -4.36274840470903240000	      3.54959307303756510000	    -80.55161534538162000000	     11.10196748036963200000	     -0.00000000000004357810	      0.00000000000012911520	     -4.11806912622606450000	     13.03856057593100100000	      7.19161914585062600000	    -30.17033431514455800000	     23.75774117701810400000	     -0.00000000000000802063	      0.00000000000000967575	    -19.97086376246387800000	     -5.02203870997041600000	     -6.51422892155895550000	    -30.59984548128840500000	     -9.89925997437263840000	     -1.12067261669023810000	    113.93539278167073000000	    103.26698258700235000000	      0.00000000000000236128	     -0.00000000000000817812	    -18.40860993823639900000	     -8.83685141912570950000	     -9.76299664096546490000	    122.17440553163446000000	     96.43639494390589600000	     -0.00000000000000343322	      0.00000000000001544921
      2.21349999999999980000	      6.41093668436358930000	      3.29006888822483350000	     -4.14633751654796880000	      1.20399457438626940000	      0.97900961777211271000	     -0.31002096044768712000	     18.39550356090984800000	     -4.28706360627468900000	      3.48792014745881310000	    -80.33628818346761600000	     11.17517308783278400000	     -0.00000000000004374587	      0.00000000000012938786	     -4.36216453619547460000	     12.96702544067346000000	      7.33407734581790740000	    -29.90574202103482900000	     23.63021342943940800000	     -0.00000000000000809116	      0.00000000000000963683	    -19.91640131097259200000	     -4.93675747106746870000	     -6.60733634066252850000	    -30.75067606832442400000	     -9.91648324281745270000	     -1.18379429381095110000	    114.16402373435162000000	    103.24173340583840000000	      0.00000000000000237968	     -0.00000000000000821153	    -18.33731575698300300000	     -8.81693141141406040000	     -9.65160064550593870000	    122.33734721453098000000	     96.32999848915901000000	     -0.00000000000000342754	      0.00000000000001521745
      2.21450000000000010000	      6.37975917574382030000	      3.21716356843374430000	     -4.13488516903520510000	      1.20410613853842020000	      0.97947886978343557000	     -0.30995236258895764000	     18.50310115123083300000	     -4.21024164579865180000	      3.42497485939923330000	    -80.11562655468043200000	     11.24667276581190300000	     -0.00000000000004391509	      0.00000000000012965926	     -4.60753575301524610000	     12.89348280932217200000	      7.47662702901246680000	    -29.63922644393067800000	     23.49751560541829300000	     -0.00000000000000818114	      0.00000000000000962558	    -19.86297382964451700000	     -4.85004383307989520000	     -6.69792868664550320000	    -30.90315496345889600000	     -9.93324407099069080000	     -1.24752070423928020000	    114.39355011481877000000	    103.21284529120075000000	      0.00000000000000239900	     -0.00000000000000824427	    -18.26497457126716700000	     -8.79955589270173810000	     -9.53482970742951070000	    122.49981177306938000000	     96.22086172963787500000	     -0.00000000000000342216	      0.00000000000001497420
      2.21550000000000000000	      6.34931924539095680000	      3.14307979600540490000	     -4.12312158135329470000	      1.20421924807873080000	      0.97995759844451336000	     -0.30988308112318186000	     18.60750170964199800000	     -4.13227533319089790000	      3.36078994148170370000	    -79.88965358973086900000	     11.31643019737478200000	     -0.00000000000004408346	      0.00000000000012993094	     -4.85407461078344400000	     12.81793268807449800000	      7.61912078148104220000	    -29.37096587432320800000	     23.35966211889967100000	     -0.00000000000000827505	      0.00000000000000960591	    -19.81059127760320100000	     -4.76190437448981550000	     -6.78601491502088640000	    -31.05725831633505500000	     -9.94953626123379210000	     -1.31179837274155360000	    114.62390365631413000000	    103.18027918581045000000	      0.00000000000000241902	     -0.00000000000000827708	    -18.19160041170838200000	     -8.78471191658080390000	     -9.41280007085062920000	    122.66175740758858000000	     96.10915946653231900000	     -0.00000000000000341597	      0.00000000000001473933
      2.21649999999999990000	      6.31960694690427880000	      3.06782732101798760000	     -4.11104650528261840000	      1.20433382407347580000	      0.98044563404488094000	     -0.30981312469044237000	     18.70871940856543600000	     -4.05315761576589310000	      3.29540254244644530000	    -79.65839432114069000000	     11.38440954476965100000	     -0.00000000000004425609	      0.00000000000013020185	     -5.10166607227156630000	     12.74037805193490600000	      7.76140868787401140000	    -29.10113895758599200000	     23.21667183698424400000	     -0.00000000000000837332	      0.00000000000000959638	    -19.75925457940040900000	     -4.67234713788388320000	     -6.87160490354271310000	    -31.21296116612454000000	     -9.96535598298804180000	     -1.37657190706389780000	    114.85501692157716000000	    103.14399629062031000000	      0.00000000000000243791	     -0.00000000000000831211	    -18.11721010716512100000	     -8.77238420052715110000	     -9.28563312200877530000	    122.82314466590475000000	     95.99507331594705300000	     -0.00000000000000340873	      0.00000000000001450314
